<?xml version="1.0" encoding="UTF-8"?>
<svg xmlns="http://www.w3.org/2000/svg" viewBox="0 0 1200 675" width="100%" height="auto" preserveAspectRatio="xMidYMid meet" role="img" aria-labelledby="08-retry-backfill-title 08-retry-backfill-desc">
  <title id="08-retry-backfill-title">Retry e backfill</title>
  <desc id="08-retry-backfill-desc">Recupere falhas transitórias sem criar loops nem compras duplicadas.</desc>
  <style>
    svg { background:#ffffff; font-family:Inter,Segoe UI,Arial,sans-serif; }
    .kicker { font-size:13px; font-weight:800; letter-spacing:2px; fill:#12727c; }
    .heading { font-size:29px; font-weight:800; fill:#111827; }
    .intro { font-size:14px; fill:#4b5563; }
    .node-title { font-size:16px; font-weight:800; fill:#111827; }
    .node-sub { font-size:12px; fill:#4b5563; }
    .badge { font-size:12px; font-weight:800; fill:#ffffff; }
    .edge-label { font-size:11px; font-weight:700; fill:#4b5563; }
    .section { font-size:12px; font-weight:800; letter-spacing:1.4px; fill:#1e4a96; }
    .note { font-size:13px; fill:#374151; }
    .note-strong { font-size:13px; font-weight:800; fill:#111827; }
    .footer { font-size:12px; fill:#6b7280; }
    .mono { font-family:Consolas,monospace; font-size:12px; fill:#163a78; }
    @media (prefers-reduced-motion: reduce) { * { animation:none!important; } }
  </style>
  <rect width="1200" height="675" fill="#ffffff"/>
  <rect x="0" y="0" width="16" height="675" fill="#1e4a96"/>
  <rect x="16" y="0" width="7" height="675" fill="#25acb9"/>
  <text x="58" y="52" class="kicker">RECUPERAÇÃO CONTROLADA</text>
  <text x="58" y="88" class="heading">Retry e backfill</text>
  <text x="58" y="116" class="intro">Recupere falhas transitórias sem criar loops nem compras duplicadas.</text>
  <line x1="58" y1="137" x2="1142" y2="137" stroke="#e3e5ea"/>
  <g class="node"><rect x="58" y="228" width="190" height="122" rx="16" fill="#e7edf7" stroke="#1e4a96" stroke-width="2"/><circle cx="86" cy="256" r="14" fill="#1e4a96"/><text x="86" y="261" class="badge" text-anchor="middle">1</text><text x="114" y="263" class="node-title" text-anchor="start">Tentativa</text><text x="114" y="285" class="node-sub" text-anchor="start">envio inicial</text></g><path d="M 248 289 L 344 289" fill="none" stroke="#d97706" stroke-width="3" stroke-linecap="round" stroke-dasharray="8 7"/><polygon points="344,289 333.0,282.4 333.0,295.6" fill="#d97706"/><rect x="241.0" y="264.0" width="110" height="22" rx="11" fill="#ffffff"/><text x="296.0" y="280.0" class="edge-label" text-anchor="middle">falhou</text><g class="node"><rect x="344" y="228" width="204" height="122" rx="16" fill="#fef3c7" stroke="#d97706" stroke-width="2"/><circle cx="372" cy="256" r="14" fill="#d97706"/><text x="372" y="261" class="badge" text-anchor="middle">2</text><text x="400" y="263" class="node-title" text-anchor="start">Classificador</text><text x="400" y="285" class="node-sub" text-anchor="start">erro transitório?</text></g><path d="M 548 270 L 664 210" fill="none" stroke="#12727c" stroke-width="3" stroke-linecap="round"/><polygon points="664,210 651.2,209.2 657.3,220.9" fill="#12727c"/><rect x="551.0" y="215.0" width="110" height="22" rx="11" fill="#ffffff"/><text x="606.0" y="231.0" class="edge-label" text-anchor="middle">sim</text><path d="M 548 314 L 664 410" fill="none" stroke="#d14343" stroke-width="3" stroke-linecap="round" stroke-dasharray="8 7"/><polygon points="664,410 659.7,397.9 651.3,408.1" fill="#d14343"/><rect x="551.0" y="337.0" width="110" height="22" rx="11" fill="#ffffff"/><text x="606.0" y="353.0" class="edge-label" text-anchor="middle">não</text><g class="node"><rect x="664" y="164" width="224" height="112" rx="16" fill="#fef3c7" stroke="#d97706" stroke-width="2"/><circle cx="692" cy="192" r="14" fill="#d97706"/><text x="692" y="197" class="badge" text-anchor="middle">3</text><text x="720" y="199" class="node-title" text-anchor="start">Retry</text><text x="720" y="221" class="node-sub" text-anchor="start">espera progressiva</text></g><path d="M 888 220 L 1000 220" fill="none" stroke="#12727c" stroke-width="3" stroke-linecap="round"/><polygon points="1000,220 989.0,213.4 989.0,226.6" fill="#12727c"/><rect x="889.0" y="195.0" width="110" height="22" rx="11" fill="#ffffff"/><text x="944.0" y="211.0" class="edge-label" text-anchor="middle">tenta</text><g class="node"><rect x="1000" y="164" width="142" height="112" rx="16" fill="#e2f4f5" stroke="#12727c" stroke-width="2"/><circle cx="1028" cy="192" r="14" fill="#12727c"/><text x="1028" y="197" class="badge" text-anchor="middle">4</text><text x="1056" y="199" class="node-title" text-anchor="start">Destino</text><text x="1056" y="221" class="node-sub" text-anchor="start">responde</text></g><path d="M 1071 276 L 1071 344" fill="none" stroke="#d14343" stroke-width="3" stroke-linecap="round" stroke-dasharray="8 7"/><polygon points="1071,344 1077.6,333.0 1064.4,333.0" fill="#d14343"/><rect x="1016.0" y="285.0" width="110" height="22" rx="11" fill="#ffffff"/><text x="1071.0" y="301.0" class="edge-label" text-anchor="middle">esgotou</text><g class="node"><rect x="946" y="344" width="196" height="112" rx="16" fill="#fbe4e4" stroke="#d14343" stroke-width="2"/><circle cx="974" cy="372" r="14" fill="#d14343"/><text x="974" y="377" class="badge" text-anchor="middle">5</text><text x="1002" y="379" class="node-title" text-anchor="start">Fila de falhas</text><text x="1002" y="401" class="node-sub" text-anchor="start">revisão e backfill</text></g><g class="node"><rect x="664" y="382" width="224" height="112" rx="16" fill="#fbe4e4" stroke="#d14343" stroke-width="2"/><circle cx="692" cy="410" r="14" fill="#d14343"/><text x="692" y="415" class="badge" text-anchor="middle">X</text><text x="720" y="417" class="node-title" text-anchor="start">Falha permanente</text><text x="720" y="439" class="node-sub" text-anchor="start">corrigir contrato</text></g><path d="M 888 438 L 946 410" fill="none" stroke="#d14343" stroke-width="3" stroke-linecap="round" stroke-dasharray="8 7"/><polygon points="946,410 933.2,408.8 939.0,420.7" fill="#d14343"/><rect x="862.0" y="399.0" width="110" height="22" rx="11" fill="#ffffff"/><text x="917.0" y="415.0" class="edge-label" text-anchor="middle">registra</text><path d="M 946 494 L 824 540" fill="none" stroke="#12727c" stroke-width="3" stroke-linecap="round"/><polygon points="824,540 836.6,542.3 832.0,529.9" fill="#12727c"/><rect x="830.0" y="492.0" width="110" height="22" rx="11" fill="#ffffff"/><text x="885.0" y="508.0" class="edge-label" text-anchor="middle">reprocessa</text><g class="node"><rect x="594" y="508" width="230" height="88" rx="16" fill="#dcfce7" stroke="#16a34a" stroke-width="2"/><circle cx="622" cy="536" r="14" fill="#16a34a"/><text x="622" y="541" class="badge" text-anchor="middle">6</text><text x="650" y="543" class="node-title" text-anchor="start">Backfill seguro</text><text x="650" y="565" class="node-sub" text-anchor="start">janela + deduplicação</text></g><rect x="58" y="408" width="446" height="112" rx="14" fill="#f4f6f9" stroke="#cdd0d6"/><text x="84" y="440" class="section" text-anchor="start">NÃO REPITA NO ESCURO</text><text x="84" y="468" class="note-strong" text-anchor="start">Limite, espera, motivo e chave de deduplicação</text><text x="84" y="492" class="note" text-anchor="start">devem acompanhar toda nova tentativa.</text>
  <line x1="58" y1="628" x2="1142" y2="628" stroke="#e3e5ea"/>
  <circle cx="70" cy="650" r="5" fill="#25acb9"/>
  <text x="84" y="654" class="footer">Backfill é uma operação auditável, com escopo e janela definidos.</text>
  <text x="1142" y="654" class="footer" text-anchor="end">SOUREI • N8N EM PRODUÇÃO</text>
</svg>
